<mxfile host="Electron" agent="Mozilla/5.0 (Windows NT 10.0; Win64; x64) AppleWebKit/537.36 (KHTML, like Gecko) draw.io/27.0.5 Chrome/134.0.6998.205 Electron/35.3.0 Safari/537.36" version="27.0.5">
  <diagram name="Seite-1" id="bGcENvx-rqWKhTurmv1m">
    <mxGraphModel dx="1426" dy="889" grid="1" gridSize="10" guides="1" tooltips="1" connect="1" arrows="1" fold="1" page="1" pageScale="1" pageWidth="827" pageHeight="1169" math="0" shadow="0">
      <root>
        <mxCell id="0" />
        <mxCell id="1" parent="0" />
        <mxCell id="ue7t5pKXN6XHKBtUqyQd-2" value="API-Gateway" style="shape=umlLifeline;perimeter=lifelinePerimeter;whiteSpace=wrap;html=1;container=1;collapsible=0;recursiveResize=0;outlineConnect=0;rounded=1;shadow=0;comic=0;labelBackgroundColor=none;strokeWidth=1;fontFamily=Verdana;fontSize=12;align=center;" parent="1" vertex="1">
          <mxGeometry x="389" y="80" width="100" height="880" as="geometry" />
        </mxCell>
        <mxCell id="ue7t5pKXN6XHKBtUqyQd-3" value="" style="html=1;points=[];perimeter=orthogonalPerimeter;rounded=0;shadow=0;comic=0;labelBackgroundColor=none;strokeWidth=1;fontFamily=Verdana;fontSize=12;align=center;" parent="ue7t5pKXN6XHKBtUqyQd-2" vertex="1">
          <mxGeometry x="45" y="300" width="10" height="420" as="geometry" />
        </mxCell>
        <mxCell id="ue7t5pKXN6XHKBtUqyQd-148" value="" style="shape=umlDestroy;whiteSpace=wrap;html=1;strokeWidth=3;targetShapes=umlLifeline;" parent="ue7t5pKXN6XHKBtUqyQd-2" vertex="1">
          <mxGeometry x="35" y="850" width="30" height="30" as="geometry" />
        </mxCell>
        <mxCell id="ue7t5pKXN6XHKBtUqyQd-4" value="Backend" style="shape=umlLifeline;perimeter=lifelinePerimeter;whiteSpace=wrap;html=1;container=1;collapsible=0;recursiveResize=0;outlineConnect=0;rounded=1;shadow=0;comic=0;labelBackgroundColor=none;strokeWidth=1;fontFamily=Verdana;fontSize=12;align=center;" parent="1" vertex="1">
          <mxGeometry x="670" y="80" width="100" height="880" as="geometry" />
        </mxCell>
        <mxCell id="ue7t5pKXN6XHKBtUqyQd-5" value="" style="html=1;points=[];perimeter=orthogonalPerimeter;rounded=0;shadow=0;comic=0;labelBackgroundColor=none;strokeWidth=1;fontFamily=Verdana;fontSize=12;align=center;" parent="ue7t5pKXN6XHKBtUqyQd-4" vertex="1">
          <mxGeometry x="45" y="330" width="10" height="510" as="geometry" />
        </mxCell>
        <mxCell id="ue7t5pKXN6XHKBtUqyQd-142" value="Aktualisiern der Zählungsattribute" style="html=1;align=left;spacingLeft=2;endArrow=block;rounded=0;edgeStyle=orthogonalEdgeStyle;curved=0;rounded=0;" parent="ue7t5pKXN6XHKBtUqyQd-4" edge="1">
          <mxGeometry relative="1" as="geometry">
            <mxPoint x="55" y="441" as="sourcePoint" />
            <Array as="points">
              <mxPoint x="90" y="443" />
              <mxPoint x="90" y="473" />
            </Array>
            <mxPoint x="55" y="471" as="targetPoint" />
            <mxPoint as="offset" />
          </mxGeometry>
        </mxCell>
        <mxCell id="ue7t5pKXN6XHKBtUqyQd-149" value="" style="shape=umlDestroy;whiteSpace=wrap;html=1;strokeWidth=3;targetShapes=umlLifeline;" parent="ue7t5pKXN6XHKBtUqyQd-4" vertex="1">
          <mxGeometry x="35" y="850" width="30" height="30" as="geometry" />
        </mxCell>
        <mxCell id="C24M_OVeLERZAelbrTyf-5" value="Anreichern des Zeitintervalls mit&lt;div&gt;&lt;div&gt;Zählungs- und Fahrbeziehungs-&lt;/div&gt;&lt;/div&gt;&lt;div&gt;informationen sowie&amp;nbsp;&lt;/div&gt;&lt;div&gt;Hochrechnungsfaktor&lt;/div&gt;" style="html=1;align=left;spacingLeft=2;endArrow=block;rounded=0;edgeStyle=orthogonalEdgeStyle;curved=0;rounded=0;" edge="1" parent="ue7t5pKXN6XHKBtUqyQd-4">
          <mxGeometry relative="1" as="geometry">
            <mxPoint x="55" y="578" as="sourcePoint" />
            <Array as="points">
              <mxPoint x="90" y="580" />
              <mxPoint x="90" y="610" />
            </Array>
            <mxPoint x="55" y="608" as="targetPoint" />
            <mxPoint as="offset" />
          </mxGeometry>
        </mxCell>
        <mxCell id="C24M_OVeLERZAelbrTyf-13" value="Persistieren der Zeitintervalle&lt;div&gt;(ohne Aggregationen)&lt;/div&gt;" style="html=1;verticalAlign=bottom;endArrow=block;entryX=0;entryY=0;labelBackgroundColor=none;fontFamily=Verdana;fontSize=12;edgeStyle=elbowEdgeStyle;elbow=vertical;" edge="1" parent="ue7t5pKXN6XHKBtUqyQd-4">
          <mxGeometry x="0.0037" relative="1" as="geometry">
            <mxPoint x="55" y="685.25" as="sourcePoint" />
            <mxPoint as="offset" />
            <mxPoint x="324" y="685.25" as="targetPoint" />
          </mxGeometry>
        </mxCell>
        <mxCell id="ue7t5pKXN6XHKBtUqyQd-7" value="Relationale&lt;div&gt;Datenbank&lt;/div&gt;" style="shape=umlLifeline;perimeter=lifelinePerimeter;whiteSpace=wrap;html=1;container=1;collapsible=0;recursiveResize=0;outlineConnect=0;rounded=1;shadow=0;comic=0;labelBackgroundColor=none;strokeWidth=1;fontFamily=Verdana;fontSize=12;align=center;" parent="1" vertex="1">
          <mxGeometry x="950" y="80" width="100" height="880" as="geometry" />
        </mxCell>
        <mxCell id="ue7t5pKXN6XHKBtUqyQd-150" value="" style="shape=umlDestroy;whiteSpace=wrap;html=1;strokeWidth=3;targetShapes=umlLifeline;" parent="ue7t5pKXN6XHKBtUqyQd-7" vertex="1">
          <mxGeometry x="35" y="850" width="30" height="30" as="geometry" />
        </mxCell>
        <mxCell id="ue7t5pKXN6XHKBtUqyQd-137" value="" style="html=1;points=[];perimeter=orthogonalPerimeter;rounded=0;shadow=0;comic=0;labelBackgroundColor=none;strokeWidth=1;fontFamily=Verdana;fontSize=12;align=center;" parent="ue7t5pKXN6XHKBtUqyQd-7" vertex="1">
          <mxGeometry x="45" y="680" width="10" height="49" as="geometry" />
        </mxCell>
        <mxCell id="ue7t5pKXN6XHKBtUqyQd-8" value="GUI&lt;div&gt;Self-Service-Portal&lt;/div&gt;" style="shape=umlLifeline;perimeter=lifelinePerimeter;whiteSpace=wrap;html=1;container=1;collapsible=0;recursiveResize=0;outlineConnect=0;rounded=1;shadow=0;comic=0;labelBackgroundColor=none;strokeWidth=1;fontFamily=Verdana;fontSize=12;align=center;" parent="1" vertex="1">
          <mxGeometry x="110" y="80" width="100" height="880" as="geometry" />
        </mxCell>
        <mxCell id="ue7t5pKXN6XHKBtUqyQd-10" value="" style="html=1;points=[];perimeter=orthogonalPerimeter;rounded=0;shadow=0;comic=0;labelBackgroundColor=none;strokeWidth=1;fontFamily=Verdana;fontSize=12;align=center;" parent="ue7t5pKXN6XHKBtUqyQd-8" vertex="1">
          <mxGeometry x="45" y="100" width="10" height="630" as="geometry" />
        </mxCell>
        <mxCell id="ue7t5pKXN6XHKBtUqyQd-147" value="" style="shape=umlDestroy;whiteSpace=wrap;html=1;strokeWidth=3;targetShapes=umlLifeline;" parent="ue7t5pKXN6XHKBtUqyQd-8" vertex="1">
          <mxGeometry x="35" y="850" width="30" height="30" as="geometry" />
        </mxCell>
        <mxCell id="ue7t5pKXN6XHKBtUqyQd-141" value="Validieren der CSV-Dateien mit Zähldaten" style="html=1;align=left;spacingLeft=2;endArrow=block;rounded=0;edgeStyle=orthogonalEdgeStyle;curved=0;rounded=0;" parent="ue7t5pKXN6XHKBtUqyQd-8" edge="1">
          <mxGeometry relative="1" as="geometry">
            <mxPoint x="55" y="142" as="sourcePoint" />
            <Array as="points">
              <mxPoint x="90" y="140" />
              <mxPoint x="90" y="170" />
            </Array>
            <mxPoint x="55" y="172" as="targetPoint" />
            <mxPoint as="offset" />
          </mxGeometry>
        </mxCell>
        <mxCell id="C24M_OVeLERZAelbrTyf-2" value="Mapping der Zähldaten in CSV-Dateien&lt;div&gt;auf Intervallobjekte und Verknüpfung&lt;/div&gt;&lt;div&gt;mit entsprechenden Knotenarm&lt;/div&gt;" style="html=1;align=left;spacingLeft=2;endArrow=block;rounded=0;edgeStyle=orthogonalEdgeStyle;curved=0;rounded=0;" edge="1" parent="ue7t5pKXN6XHKBtUqyQd-8">
          <mxGeometry relative="1" as="geometry">
            <mxPoint x="55" y="252" as="sourcePoint" />
            <Array as="points">
              <mxPoint x="90" y="250" />
              <mxPoint x="90" y="280" />
            </Array>
            <mxPoint x="55" y="282" as="targetPoint" />
            <mxPoint as="offset" />
          </mxGeometry>
        </mxCell>
        <mxCell id="ue7t5pKXN6XHKBtUqyQd-61" value="[Upload CSV-Datei mit&amp;nbsp;&lt;div&gt;Zähldaten je Knotenarm]&lt;/div&gt;" style="text;html=1;strokeColor=none;fillColor=none;align=center;verticalAlign=middle;whiteSpace=wrap;rounded=0;" parent="1" vertex="1">
          <mxGeometry x="180" y="156" width="191" height="30" as="geometry" />
        </mxCell>
        <mxCell id="C24M_OVeLERZAelbrTyf-1" value="[Klick auf Speichern]" style="text;html=1;strokeColor=none;fillColor=none;align=center;verticalAlign=middle;whiteSpace=wrap;rounded=0;" vertex="1" parent="1">
          <mxGeometry x="180" y="284" width="191" height="30" as="geometry" />
        </mxCell>
        <mxCell id="C24M_OVeLERZAelbrTyf-3" value="Request zum Speichern der Zählung" style="html=1;verticalAlign=bottom;endArrow=block;entryX=0;entryY=0;labelBackgroundColor=none;fontFamily=Verdana;fontSize=12;edgeStyle=elbowEdgeStyle;elbow=vertical;" edge="1" parent="1">
          <mxGeometry x="0.0037" relative="1" as="geometry">
            <mxPoint x="165" y="400" as="sourcePoint" />
            <mxPoint as="offset" />
            <mxPoint x="434" y="400" as="targetPoint" />
          </mxGeometry>
        </mxCell>
        <mxCell id="C24M_OVeLERZAelbrTyf-4" value="Request zum Speichern der Zählung" style="html=1;verticalAlign=bottom;endArrow=block;entryX=0;entryY=0;labelBackgroundColor=none;fontFamily=Verdana;fontSize=12;edgeStyle=elbowEdgeStyle;elbow=vertical;" edge="1" parent="1">
          <mxGeometry x="0.0037" relative="1" as="geometry">
            <mxPoint x="445" y="418.25" as="sourcePoint" />
            <mxPoint as="offset" />
            <mxPoint x="714" y="418.25" as="targetPoint" />
          </mxGeometry>
        </mxCell>
        <mxCell id="C24M_OVeLERZAelbrTyf-6" value="loop über&lt;div&gt;Fahrbeziehungen&lt;/div&gt;" style="shape=umlFrame;whiteSpace=wrap;html=1;pointerEvents=0;width=100;height=50;" vertex="1" parent="1">
          <mxGeometry x="600" y="569" width="370" height="159" as="geometry" />
        </mxCell>
        <mxCell id="C24M_OVeLERZAelbrTyf-7" value="loop über&lt;div&gt;Zeitintervalle der Fahrbeziehung&lt;/div&gt;" style="shape=umlFrame;whiteSpace=wrap;html=1;pointerEvents=0;width=100;height=50;" vertex="1" parent="1">
          <mxGeometry x="610" y="629" width="350" height="90" as="geometry" />
        </mxCell>
        <mxCell id="C24M_OVeLERZAelbrTyf-12" value="" style="html=1;verticalAlign=bottom;endArrow=block;labelBackgroundColor=none;fontFamily=Verdana;fontSize=12;edgeStyle=elbowEdgeStyle;elbow=vertical;exitX=0.925;exitY=0.55;exitDx=0;exitDy=0;exitPerimeter=0;dashed=1;" edge="1" parent="1">
          <mxGeometry x="-0.0014" relative="1" as="geometry">
            <mxPoint x="995.25" y="800" as="sourcePoint" />
            <mxPoint as="offset" />
            <mxPoint x="725" y="800" as="targetPoint" />
          </mxGeometry>
        </mxCell>
        <mxCell id="C24M_OVeLERZAelbrTyf-14" value="NoSQL&lt;div&gt;Datenbank&lt;/div&gt;" style="shape=umlLifeline;perimeter=lifelinePerimeter;whiteSpace=wrap;html=1;container=1;collapsible=0;recursiveResize=0;outlineConnect=0;rounded=1;shadow=0;comic=0;labelBackgroundColor=none;strokeWidth=1;fontFamily=Verdana;fontSize=12;align=center;" vertex="1" parent="1">
          <mxGeometry x="1229" y="80" width="100" height="880" as="geometry" />
        </mxCell>
        <mxCell id="C24M_OVeLERZAelbrTyf-15" value="" style="shape=umlDestroy;whiteSpace=wrap;html=1;strokeWidth=3;targetShapes=umlLifeline;" vertex="1" parent="C24M_OVeLERZAelbrTyf-14">
          <mxGeometry x="35" y="850" width="30" height="30" as="geometry" />
        </mxCell>
        <mxCell id="C24M_OVeLERZAelbrTyf-17" value="" style="html=1;points=[];perimeter=orthogonalPerimeter;rounded=0;shadow=0;comic=0;labelBackgroundColor=none;strokeWidth=1;fontFamily=Verdana;fontSize=12;align=center;" vertex="1" parent="C24M_OVeLERZAelbrTyf-14">
          <mxGeometry x="45" y="740" width="10" height="50" as="geometry" />
        </mxCell>
        <mxCell id="C24M_OVeLERZAelbrTyf-18" value="" style="html=1;points=[];perimeter=orthogonalPerimeter;rounded=0;shadow=0;comic=0;labelBackgroundColor=none;strokeWidth=1;fontFamily=Verdana;fontSize=12;align=center;" vertex="1" parent="C24M_OVeLERZAelbrTyf-14">
          <mxGeometry x="45" y="340" width="10" height="50" as="geometry" />
        </mxCell>
        <mxCell id="C24M_OVeLERZAelbrTyf-19" value="Holen der Zählstelle" style="html=1;verticalAlign=bottom;endArrow=block;labelBackgroundColor=none;fontFamily=Verdana;fontSize=12;edgeStyle=elbowEdgeStyle;elbow=vertical;" edge="1" parent="1" target="C24M_OVeLERZAelbrTyf-14">
          <mxGeometry x="0.0037" relative="1" as="geometry">
            <mxPoint x="725" y="430.25" as="sourcePoint" />
            <mxPoint as="offset" />
            <mxPoint x="1250" y="430" as="targetPoint" />
          </mxGeometry>
        </mxCell>
        <mxCell id="C24M_OVeLERZAelbrTyf-20" value="Extrahieren der Zählung aus Zählstelle." style="html=1;align=left;spacingLeft=2;endArrow=block;rounded=0;edgeStyle=orthogonalEdgeStyle;curved=0;rounded=0;" edge="1" parent="1">
          <mxGeometry relative="1" as="geometry">
            <mxPoint x="726" y="473" as="sourcePoint" />
            <Array as="points">
              <mxPoint x="761" y="475" />
              <mxPoint x="761" y="505" />
            </Array>
            <mxPoint x="726" y="503" as="targetPoint" />
            <mxPoint as="offset" />
          </mxGeometry>
        </mxCell>
        <mxCell id="C24M_OVeLERZAelbrTyf-21" value="Zählstelle" style="html=1;verticalAlign=bottom;endArrow=block;labelBackgroundColor=none;fontFamily=Verdana;fontSize=12;edgeStyle=elbowEdgeStyle;elbow=vertical;exitX=0.925;exitY=0.55;exitDx=0;exitDy=0;exitPerimeter=0;dashed=1;" edge="1" parent="1" target="ue7t5pKXN6XHKBtUqyQd-4">
          <mxGeometry x="-0.0014" relative="1" as="geometry">
            <mxPoint x="1280.25" y="460" as="sourcePoint" />
            <mxPoint as="offset" />
            <mxPoint x="740" y="460" as="targetPoint" />
          </mxGeometry>
        </mxCell>
        <mxCell id="C24M_OVeLERZAelbrTyf-22" value="Persistieren der Zählstelle" style="html=1;verticalAlign=bottom;endArrow=block;labelBackgroundColor=none;fontFamily=Verdana;fontSize=12;edgeStyle=elbowEdgeStyle;elbow=vertical;" edge="1" parent="1">
          <mxGeometry x="0.0037" relative="1" as="geometry">
            <mxPoint x="723" y="830.25" as="sourcePoint" />
            <mxPoint as="offset" />
            <mxPoint x="1277" y="830" as="targetPoint" />
          </mxGeometry>
        </mxCell>
        <mxCell id="C24M_OVeLERZAelbrTyf-24" value="Zählstelle" style="html=1;verticalAlign=bottom;endArrow=block;labelBackgroundColor=none;fontFamily=Verdana;fontSize=12;edgeStyle=elbowEdgeStyle;elbow=vertical;exitX=0.925;exitY=0.55;exitDx=0;exitDy=0;exitPerimeter=0;dashed=1;" edge="1" parent="1">
          <mxGeometry x="-0.0014" relative="1" as="geometry">
            <mxPoint x="1280.13" y="860" as="sourcePoint" />
            <mxPoint as="offset" />
            <mxPoint x="719.88" y="860" as="targetPoint" />
          </mxGeometry>
        </mxCell>
      </root>
    </mxGraphModel>
  </diagram>
</mxfile>
